# xmcd CD database file
# Copyright (C) 1995-1998 Ti Kan
#
# Track frame offsets:
#	150
#	23292
#	40440
#	66112
#	85317
#
# Disc length: 1518 seconds
#
# Revision: 1
# Processed by: cddbd v1.4PL0 Copyright (c) Steve Scherf et al.
# Submitted via: CDex 1.30Release
#
DISCID=3405ec05
DTITLE=Julian Sas - Ragin' River Bonus CD
DYEAR=2002
DGENRE=Blues
TTITLE0=Texas Tornado
TTITLE1=Jockey Blues
TTITLE2=Long distance call
TTITLE3=Cat man blues
TTITLE4=Too much alcohol
EXTD=YEAR: 2002 ID3G:   0
EXTT0=
EXTT1=
EXTT2=
EXTT3=
EXTT4=
PLAYORDER=
